<svg width="44" height="53" viewBox="0 0 44 53" fill="none" xmlns="http://www.w3.org/2000/svg">
<path fill-rule="evenodd" clip-rule="evenodd" d="M4.10223 0.703831C3.87909 0.480689 3.61418 0.303684 3.32263 0.18292C3.03108 0.0621564 2.7186 2.35118e-09 2.40303 0C2.08746 -2.35119e-09 1.77498 0.0621564 1.48343 0.18292C1.19188 0.303684 0.926973 0.480689 0.703831 0.703831C0.480689 0.926973 0.303684 1.19188 0.18292 1.48343C0.0621564 1.77498 -2.35118e-09 2.08746 0 2.40303C2.35118e-09 2.7186 0.0621564 3.03108 0.18292 3.32263C0.303684 3.61418 0.480689 3.87909 0.703831 4.10223L19.9038 23.3022C20.1268 23.5257 20.3916 23.7031 20.6832 23.8241C20.9748 23.945 21.2873 24.0073 21.603 24.0073C21.9187 24.0073 22.2313 23.945 22.5229 23.8241C22.8145 23.7031 23.0793 23.5257 23.3022 23.3022L42.5022 4.10223C42.9529 3.65158 43.2061 3.04036 43.2061 2.40303C43.2061 1.76571 42.9529 1.15449 42.5022 0.703831C42.0516 0.253175 41.4404 0 40.803 0C40.1657 0 39.5545 0.253175 39.1038 0.703831L21.603 18.2094L4.10223 0.703831ZM4.10223 29.5038C3.65158 29.0532 3.04036 28.8 2.40303 28.8C1.76571 28.8 1.15449 29.0532 0.703831 29.5038C0.253175 29.9545 0 30.5657 0 31.203C0 31.8404 0.253175 32.4516 0.703831 32.9022L19.9038 52.1022C20.1268 52.3257 20.3916 52.5031 20.6832 52.6241C20.9748 52.745 21.2873 52.8073 21.603 52.8073C21.9187 52.8073 22.2313 52.745 22.5229 52.6241C22.8145 52.5031 23.0793 52.3257 23.3022 52.1022L42.5022 32.9022C42.9529 32.4516 43.2061 31.8404 43.2061 31.203C43.2061 30.5657 42.9529 29.9545 42.5022 29.5038C42.0516 29.0532 41.4404 28.8 40.803 28.8C40.1657 28.8 39.5545 29.0532 39.1038 29.5038L21.603 47.0094L4.10223 29.5038Z" fill="#93FC6E"/>
</svg>
