<svg width="32" height="32" viewBox="0 0 32 32" fill="none" xmlns="http://www.w3.org/2000/svg">
<path d="M22.6667 24C23.3739 24 24.0522 24.2809 24.5523 24.781C25.0524 25.2811 25.3333 25.9594 25.3333 26.6666C25.3333 27.3739 25.0524 28.0521 24.5523 28.5522C24.0522 29.0523 23.3739 29.3333 22.6667 29.3333C21.9594 29.3333 21.2812 29.0523 20.7811 28.5522C20.281 28.0521 20 27.3739 20 26.6666C20 25.1866 21.1867 24 22.6667 24ZM1.33334 2.66663H5.69334L6.94668 5.33329H26.6667C27.0203 5.33329 27.3594 5.47377 27.6095 5.72382C27.8595 5.97387 28 6.313 28 6.66663C28 6.89329 27.9333 7.11996 27.84 7.33329L23.0667 15.96C22.6133 16.7733 21.7333 17.3333 20.7333 17.3333H10.8L9.60001 19.5066L9.56001 19.6666C9.56001 19.755 9.59513 19.8398 9.65764 19.9023C9.72015 19.9648 9.80494 20 9.89334 20H25.3333V22.6666H9.33334C8.6261 22.6666 7.94782 22.3857 7.44772 21.8856C6.94763 21.3855 6.66668 20.7072 6.66668 20C6.66668 19.5333 6.78668 19.0933 6.98668 18.72L8.80001 15.4533L4.00001 5.33329H1.33334V2.66663ZM9.33334 24C10.0406 24 10.7189 24.2809 11.219 24.781C11.7191 25.2811 12 25.9594 12 26.6666C12 27.3739 11.7191 28.0521 11.219 28.5522C10.7189 29.0523 10.0406 29.3333 9.33334 29.3333C8.6261 29.3333 7.94782 29.0523 7.44772 28.5522C6.94763 28.0521 6.66668 27.3739 6.66668 26.6666C6.66668 25.1866 7.85334 24 9.33334 24ZM21.3333 14.6666L25.04 7.99996H8.18668L11.3333 14.6666H21.3333Z" fill="white"/>
</svg>
