<svg width="26" height="24" viewBox="0 0 26 24" fill="none" xmlns="http://www.w3.org/2000/svg">
<path fill-rule="evenodd" clip-rule="evenodd" d="M10.5034 2.25C10.1586 2.24984 9.82077 2.34373 9.52927 2.52075C9.23777 2.69777 9.00457 2.95066 8.85677 3.25C8.14482 3.256 7.59107 3.287 7.09562 3.473C6.50417 3.69527 5.98979 4.07301 5.61134 4.563C5.22934 5.056 5.04927 5.69 4.80362 6.561L4.7547 6.731L4.22073 9.695C4.02817 9.823 3.86059 9.975 3.71487 10.154C2.77704 11.307 3.22358 13.024 4.11664 16.455C4.68392 18.638 4.96808 19.729 5.81535 20.365C6.66262 21 7.8336 21 10.1756 21H14.9948C17.3368 21 18.5077 21 19.355 20.365C20.2023 19.729 20.4854 18.638 21.0537 16.455C21.9468 13.023 22.3933 11.308 21.4555 10.154C21.3121 9.97656 21.1411 9.8214 20.9486 9.694L20.4146 6.732L20.3667 6.562C20.12 5.69 19.94 5.056 19.559 4.562C19.1804 4.07238 18.6661 3.695 18.0747 3.473C17.5793 3.287 17.0245 3.256 16.3136 3.251C16.1659 2.95147 15.9328 2.69838 15.6413 2.52117C15.3498 2.34396 15.0119 2.24993 14.6669 2.25H10.5034ZM19.2655 9.146L18.8887 7.058C18.5941 6.018 18.4869 5.691 18.3058 5.457C18.102 5.19311 17.825 4.98968 17.5064 4.87C17.2774 4.784 17.0006 4.759 16.3115 4.752C16.1636 5.05066 15.9305 5.30293 15.6395 5.47956C15.3484 5.6562 15.0112 5.74996 14.6669 5.75H10.5034C10.1592 5.74996 9.82194 5.6562 9.53087 5.47956C9.2398 5.30293 9.00679 5.05066 8.85886 4.752C8.16876 4.759 7.89293 4.784 7.66393 4.87C7.34539 4.98968 7.06836 5.19311 6.86455 5.457C6.68343 5.691 6.57622 6.017 6.28166 7.057L5.90486 9.146C6.94365 9 8.32801 9 10.1756 9H14.9948C16.8423 9 18.2267 9 19.2655 9.146ZM8.42169 12.25C8.62873 12.25 8.82729 12.329 8.97369 12.4697C9.1201 12.6103 9.20234 12.8011 9.20234 13V17C9.20234 17.1989 9.1201 17.3897 8.97369 17.5303C8.82729 17.671 8.62873 17.75 8.42169 17.75C8.21465 17.75 8.01608 17.671 7.86968 17.5303C7.72328 17.3897 7.64104 17.1989 7.64104 17V13C7.64104 12.8011 7.72328 12.6103 7.86968 12.4697C8.01608 12.329 8.21465 12.25 8.42169 12.25ZM17.5293 13C17.5293 12.8011 17.4471 12.6103 17.3007 12.4697C17.1543 12.329 16.9557 12.25 16.7487 12.25C16.5416 12.25 16.3431 12.329 16.1967 12.4697C16.0503 12.6103 15.968 12.8011 15.968 13V17C15.968 17.1989 16.0503 17.3897 16.1967 17.5303C16.3431 17.671 16.5416 17.75 16.7487 17.75C16.9557 17.75 17.1543 17.671 17.3007 17.5303C17.4471 17.3897 17.5293 17.1989 17.5293 17V13ZM12.5852 12.25C12.7922 12.25 12.9908 12.329 13.1372 12.4697C13.2836 12.6103 13.3658 12.8011 13.3658 13V17C13.3658 17.1989 13.2836 17.3897 13.1372 17.5303C12.9908 17.671 12.7922 17.75 12.5852 17.75C12.3781 17.75 12.1796 17.671 12.0332 17.5303C11.8868 17.3897 11.8045 17.1989 11.8045 17V13C11.8045 12.8011 11.8868 12.6103 12.0332 12.4697C12.1796 12.329 12.3781 12.25 12.5852 12.25Z" fill="#93FC6E"/>
</svg>
