<svg width="81" height="80" viewBox="0 0 81 80" fill="none" xmlns="http://www.w3.org/2000/svg">
<path d="M10.0172 40H40.0686V45H10.0172V40ZM5.00858 27.5H30.0515V32.5H5.00858V27.5Z" fill="#93FC6E"/>
<path d="M74.9258 41.515L67.4129 24.015C67.2201 23.5652 66.8993 23.1818 66.4901 22.9125C66.081 22.6432 65.6016 22.4997 65.1115 22.5H57.5986V17.5C57.5986 16.837 57.3348 16.2011 56.8651 15.7322C56.3955 15.2634 55.7585 15 55.0943 15H15.0257V20H52.5901V51.39C51.4489 52.0515 50.4503 52.9319 49.6517 53.9806C48.8531 55.0293 48.2703 56.2254 47.9371 57.5H32.2001C31.5906 55.1434 30.141 53.0895 28.1231 51.7235C26.1052 50.3575 23.6575 49.773 21.2389 50.0797C18.8202 50.3864 16.5966 51.5632 14.9849 53.3894C13.3731 55.2157 12.4839 57.5661 12.4839 60C12.4839 62.4339 13.3731 64.7843 14.9849 66.6106C16.5966 68.4368 18.8202 69.6136 21.2389 69.9203C23.6575 70.227 26.1052 69.6425 28.1231 68.2765C30.141 66.9105 31.5906 64.8566 32.2001 62.5H47.9371C48.4819 64.6456 49.7277 66.5486 51.4776 67.9079C53.2275 69.2673 55.3814 70.0053 57.5986 70.0053C59.8159 70.0053 61.9698 69.2673 63.7197 67.9079C65.4695 66.5486 66.7154 64.6456 67.2602 62.5H72.6244C73.2885 62.5 73.9255 62.2366 74.3952 61.7678C74.8648 61.2989 75.1287 60.663 75.1287 60V42.5C75.1288 42.1613 75.0598 41.8262 74.9258 41.515ZM22.5386 65C21.548 65 20.5796 64.7068 19.756 64.1573C18.9323 63.6079 18.2904 62.827 17.9113 61.9134C17.5322 60.9998 17.433 59.9945 17.6263 59.0245C17.8195 58.0546 18.2965 57.1637 18.997 56.4645C19.6975 55.7652 20.5899 55.289 21.5615 55.0961C22.533 54.9031 23.5401 55.0022 24.4553 55.3806C25.3705 55.759 26.1527 56.3999 26.7031 57.2221C27.2534 58.0444 27.5472 59.0111 27.5472 60C27.5458 61.3257 27.0177 62.5967 26.0787 63.5341C25.1397 64.4715 23.8665 64.9987 22.5386 65ZM57.5986 27.5H63.4587L68.8279 40H57.5986V27.5ZM57.5986 65C56.608 65 55.6397 64.7068 54.816 64.1573C53.9924 63.6079 53.3504 62.827 52.9713 61.9134C52.5922 60.9998 52.493 59.9945 52.6863 59.0245C52.8796 58.0546 53.3566 57.1637 54.057 56.4645C54.7575 55.7652 55.6499 55.289 56.6215 55.0961C57.5931 54.9031 58.6001 55.0022 59.5153 55.3806C60.4305 55.759 61.2128 56.3999 61.7631 57.2221C62.3135 58.0444 62.6072 59.0111 62.6072 60C62.6059 61.3257 62.0778 62.5967 61.1388 63.5341C60.1998 64.4715 58.9266 64.9987 57.5986 65ZM70.1201 57.5H67.2602C66.7085 55.3586 65.4607 53.4604 63.7122 52.1031C61.9637 50.7459 59.8135 50.0061 57.5986 50V45H70.1201V57.5Z" fill="#93FC6E"/>
</svg>
