<svg width="80" height="80" viewBox="0 0 80 80" fill="none" xmlns="http://www.w3.org/2000/svg">
<g clip-path="url(#clip0_23_41)">
<path d="M52.5188 23.7312C52.5188 24.4729 52.2988 25.1979 51.8868 25.8146C51.4747 26.4313 50.889 26.912 50.2038 27.1958C49.5186 27.4796 48.7646 27.5539 48.0372 27.4092C47.3097 27.2645 46.6416 26.9073 46.1171 26.3829C45.5927 25.8584 45.2355 25.1903 45.0908 24.4628C44.9461 23.7354 45.0204 22.9814 45.3042 22.2962C45.588 21.611 46.0687 21.0253 46.6854 20.6132C47.302 20.2012 48.0271 19.9812 48.7688 19.9812C49.7633 19.9812 50.7171 20.3763 51.4204 21.0796C52.1237 21.7829 52.5188 22.7367 52.5188 23.7312ZM64.9781 49.0437C58.4906 57.2844 48.15 61.775 34.225 62.4094L27.35 78.4781C27.1575 78.9309 26.8357 79.3168 26.4249 79.5875C26.0141 79.8582 25.5326 80.0017 25.0406 80H24.8813C24.3661 79.9677 23.8735 79.7768 23.4712 79.4534C23.0689 79.1299 22.7766 78.6899 22.6344 78.1937L18.0063 61.9906L1.8125 57.3531C1.31491 57.2134 0.872868 56.9228 0.547211 56.5215C0.221555 56.1201 0.0282937 55.6277 -0.00597261 55.112C-0.040239 54.5963 0.0861738 54.0826 0.355867 53.6417C0.625561 53.2008 1.02528 52.8544 1.5 52.65L17.5719 45.775C18.1969 31.8469 22.7 21.5062 30.9438 15.0219C44.4469 4.39687 63.7281 7.8875 67.4563 8.69375C68.3955 8.89668 69.2563 9.36597 69.9358 10.0454C70.6153 10.7249 71.0846 11.5858 71.2875 12.525C72.1125 16.25 75.6062 35.55 64.9781 49.0625V49.0437ZM50.5 53.9406C47.61 52.8398 45.0931 50.9389 43.2436 48.4602C41.3942 45.9816 40.2886 43.0276 40.0563 39.9437C36.9731 39.7118 34.0197 38.6067 31.5415 36.7578C29.0634 34.9089 27.163 32.3925 26.0625 29.5031C23.875 34.4594 22.7 40.475 22.5313 47.5094C22.5196 47.9883 22.3705 48.4539 22.1018 48.8506C21.8331 49.2472 21.4561 49.5584 21.0156 49.7469L9.95 54.4812L20.7188 57.5656C21.1269 57.6824 21.4985 57.9012 21.7986 58.2014C22.0988 58.5015 22.3176 58.8731 22.4344 59.2812L25.5094 70.05L30.2531 58.9844C30.4423 58.5425 30.7549 58.1645 31.1534 57.8957C31.5519 57.6269 32.0194 57.4786 32.5 57.4687C39.525 57.3031 45.5406 56.1219 50.5 53.9406ZM66.4156 13.5844C63.0719 12.8594 45.7906 9.7125 34.05 18.9531C32.5702 20.1194 31.2254 21.4474 30.0406 22.9125C29.9207 24.5461 30.1589 26.1861 30.7386 27.718C31.3183 29.25 32.2256 30.6369 33.3969 31.7817C34.5683 32.9266 35.9756 33.8019 37.5204 34.3465C39.0652 34.891 40.7102 35.0916 42.3406 34.9344C42.7071 34.8996 43.0768 34.9462 43.4232 35.0708C43.7696 35.1955 44.0842 35.3951 44.3446 35.6554C44.6049 35.9158 44.8045 36.2304 44.9292 36.5768C45.0538 36.9232 45.1004 37.2929 45.0656 37.6594C44.9082 39.2903 45.109 40.936 45.6539 42.4812C46.1988 44.0265 47.0747 45.4341 48.2203 46.6056C49.3659 47.7771 50.7535 48.6842 52.2862 49.2635C53.8189 49.8428 55.4597 50.0803 57.0938 49.9594C58.5568 48.7767 59.8827 47.434 61.0469 45.9562C70.2875 34.2156 67.1406 16.9312 66.4156 13.5844Z" fill="#93FC6E"/>
</g>
<defs>
<clipPath id="clip0_23_41">
<rect width="80" height="80" fill="white"/>
</clipPath>
</defs>
</svg>
