<svg width="80" height="80" viewBox="0 0 80 80" fill="none" xmlns="http://www.w3.org/2000/svg">
<path d="M17.2953 68H62.7047M17.2953 46.4596H62.7047M72.4425 24.4884C71.9294 22.6817 70.8751 21.0198 69.3832 19.6658C67.8912 18.3118 66.0127 17.3121 63.9319 16.7648C61.8511 16.2174 59.6394 16.1412 57.5137 16.5436C55.388 16.946 53.4213 17.8132 51.8064 19.0602C50.925 16.9911 49.3192 15.2036 47.207 13.9406C45.0948 12.6775 42.5786 12 40 12C37.4214 12 34.9052 12.6775 32.793 13.9406C30.6808 15.2036 29.075 16.9911 28.1936 19.0602C26.5787 17.8132 24.6119 16.946 22.4863 16.5436C20.3606 16.1412 18.1489 16.2174 16.0681 16.7648C13.9873 17.3121 12.1088 18.3118 10.6168 19.6658C9.12487 21.0198 8.07063 22.6817 7.55751 24.4884C7.15661 25.8983 7.09212 27.3627 7.36787 28.7943C7.64362 30.226 8.25398 31.5956 9.1626 32.8216C10.0712 34.0477 11.2595 35.105 12.6567 35.9308C14.0539 36.7565 15.6314 37.3337 17.2953 37.628V52.9217C17.2953 54.0643 17.8269 55.1601 18.7731 55.968C19.7193 56.7759 21.0026 57.2298 22.3408 57.2298H57.6592C58.9974 57.2298 60.2807 56.7759 61.2269 55.968C62.1731 55.1601 62.7047 54.0643 62.7047 52.9217V37.628C64.3686 37.3337 65.9461 36.7565 67.3433 35.9308C68.7405 35.105 69.9288 34.0477 70.8374 32.8216C71.746 31.5956 72.3564 30.226 72.6321 28.7943C72.9079 27.3627 72.8434 25.8983 72.4425 24.4884Z" stroke="#93FC6E" stroke-width="5" stroke-linecap="round" stroke-linejoin="round"/>
</svg>
