<svg width="194" height="44" viewBox="0 0 194 44" fill="none" xmlns="http://www.w3.org/2000/svg">
<path d="M61.3827 30.216C59.7187 30.216 58.2947 29.864 57.1107 29.16C55.9267 28.456 55.0147 27.456 54.3747 26.16C53.7507 24.864 53.4387 23.32 53.4387 21.528C53.4387 19.752 53.7507 18.216 54.3747 16.92C55.0147 15.624 55.9267 14.624 57.1107 13.92C58.2947 13.216 59.7187 12.864 61.3827 12.864C62.3747 12.864 63.3187 13.008 64.2147 13.296C65.1107 13.584 65.8867 13.992 66.5427 14.52C66.8147 14.712 66.9667 14.936 66.9987 15.192C67.0467 15.448 67.0067 15.68 66.8787 15.888C66.7507 16.08 66.5667 16.208 66.3267 16.272C66.1027 16.32 65.8467 16.24 65.5587 16.032C64.4227 15.12 63.0467 14.664 61.4307 14.664C59.5267 14.664 58.0707 15.264 57.0627 16.464C56.0547 17.664 55.5507 19.352 55.5507 21.528C55.5507 23.72 56.0547 25.416 57.0627 26.616C58.0707 27.816 59.5267 28.416 61.4307 28.416C63.0467 28.416 64.4387 27.952 65.6067 27.024C65.8947 26.832 66.1507 26.76 66.3747 26.808C66.6147 26.856 66.7907 26.976 66.9027 27.168C67.0307 27.36 67.0787 27.576 67.0467 27.816C67.0147 28.056 66.8787 28.272 66.6387 28.464C65.9507 29.04 65.1587 29.48 64.2627 29.784C63.3667 30.072 62.4067 30.216 61.3827 30.216ZM72.2842 34.488C71.9162 34.488 71.6682 34.344 71.5402 34.056C71.4122 33.784 71.4202 33.472 71.5642 33.12L73.0282 29.808L68.6122 19.536C68.4522 19.168 68.4442 18.848 68.5882 18.576C68.7482 18.304 69.0442 18.168 69.4762 18.168C69.9242 18.168 70.2522 18.424 70.4602 18.936L74.0842 27.792L77.7322 18.936C77.8602 18.648 77.9962 18.448 78.1402 18.336C78.2842 18.224 78.4922 18.168 78.7642 18.168C79.1322 18.168 79.3802 18.304 79.5082 18.576C79.6362 18.848 79.6282 19.16 79.4842 19.512L73.3402 33.72C73.2122 34.008 73.0682 34.208 72.9082 34.32C72.7642 34.432 72.5562 34.488 72.2842 34.488ZM83.2621 30C82.5901 30 82.2541 29.664 82.2541 28.992V19.152C82.2541 18.496 82.5661 18.168 83.1901 18.168C83.8141 18.168 84.1261 18.496 84.1261 19.152V28.44H88.9981V19.152C88.9981 18.496 89.3101 18.168 89.9341 18.168C90.5421 18.168 90.8461 18.496 90.8461 19.152V28.44H95.7181V19.152C95.7181 18.496 96.0301 18.168 96.6541 18.168C97.2781 18.168 97.5901 18.496 97.5901 19.152V28.992C97.5901 29.664 97.2541 30 96.5821 30H83.2621ZM102.314 30.168C101.722 30.168 101.426 29.816 101.426 29.112V19.128C101.426 18.488 101.722 18.168 102.314 18.168C102.906 18.168 103.202 18.488 103.202 19.128V27.36L109.586 18.792C109.714 18.616 109.858 18.472 110.018 18.36C110.194 18.232 110.426 18.168 110.714 18.168C111.306 18.168 111.602 18.512 111.602 19.2V29.208C111.602 29.848 111.306 30.168 110.714 30.168C110.122 30.168 109.826 29.848 109.826 29.208V20.976L103.418 29.544C103.306 29.704 103.162 29.848 102.986 29.976C102.826 30.104 102.602 30.168 102.314 30.168Z" fill="white"/>
<path d="M116.594 30.168C115.938 30.168 115.61 29.824 115.61 29.136V14.088C115.61 13.416 115.946 13.08 116.618 13.08H122.306C124.13 13.08 125.522 13.52 126.482 14.4C127.458 15.28 127.946 16.536 127.946 18.168C127.946 19.784 127.458 21.04 126.482 21.936C125.522 22.816 124.13 23.256 122.306 23.256H117.578V29.136C117.578 29.824 117.25 30.168 116.594 30.168ZM117.578 21.6H122.066C124.69 21.6 126.002 20.456 126.002 18.168C126.002 15.864 124.69 14.712 122.066 14.712H117.578V21.6ZM138.813 30.168C138.189 30.168 137.877 29.856 137.877 29.232V25.56H136.173C135.533 25.56 134.989 25.72 134.541 26.04C134.109 26.344 133.757 26.736 133.485 27.216L132.117 29.616C131.941 29.92 131.725 30.096 131.469 30.144C131.213 30.192 130.973 30.152 130.749 30.024C130.541 29.896 130.389 29.712 130.293 29.472C130.213 29.232 130.253 28.976 130.413 28.704L131.565 26.76C131.757 26.408 132.005 26.096 132.309 25.824C132.629 25.552 132.965 25.352 133.317 25.224C132.325 25.08 131.557 24.72 131.013 24.144C130.469 23.552 130.197 22.784 130.197 21.84C130.197 20.768 130.549 19.92 131.253 19.296C131.973 18.656 133.045 18.336 134.469 18.336H138.693C139.381 18.336 139.725 18.672 139.725 19.344V29.232C139.725 29.536 139.637 29.768 139.461 29.928C139.301 30.088 139.085 30.168 138.813 30.168ZM134.829 24.144H137.877V19.704H134.829C133.885 19.704 133.189 19.904 132.741 20.304C132.293 20.688 132.069 21.224 132.069 21.912C132.069 22.616 132.293 23.168 132.741 23.568C133.189 23.952 133.885 24.144 134.829 24.144ZM143.135 33.288C142.575 33.288 142.295 32.984 142.295 32.376V29.4C142.295 28.76 142.615 28.44 143.255 28.44H143.543C144.087 27.608 144.479 26.664 144.719 25.608C144.959 24.552 145.079 23.272 145.079 21.768V19.44C145.079 18.704 145.447 18.336 146.183 18.336H152.231C152.967 18.336 153.335 18.704 153.335 19.44V28.44H154.223C154.863 28.44 155.183 28.76 155.183 29.4V32.376C155.183 32.984 154.903 33.288 154.343 33.288C153.783 33.288 153.503 32.984 153.503 32.376V30H143.951V32.376C143.951 32.984 143.679 33.288 143.135 33.288ZM145.391 28.44H151.487V19.872H146.807V22.104C146.807 23.304 146.687 24.464 146.447 25.584C146.207 26.704 145.855 27.656 145.391 28.44ZM162.642 30.216C161.506 30.216 160.522 29.968 159.69 29.472C158.858 28.976 158.21 28.28 157.746 27.384C157.298 26.472 157.074 25.4 157.074 24.168C157.074 22.936 157.298 21.872 157.746 20.976C158.21 20.064 158.858 19.36 159.69 18.864C160.522 18.368 161.506 18.12 162.642 18.12C163.762 18.12 164.738 18.368 165.57 18.864C166.418 19.36 167.066 20.064 167.514 20.976C167.978 21.872 168.21 22.936 168.21 24.168C168.21 25.4 167.978 26.472 167.514 27.384C167.066 28.28 166.418 28.976 165.57 29.472C164.738 29.968 163.762 30.216 162.642 30.216ZM162.642 28.656C163.73 28.656 164.602 28.272 165.258 27.504C165.914 26.72 166.242 25.608 166.242 24.168C166.242 22.712 165.914 21.6 165.258 20.832C164.602 20.064 163.73 19.68 162.642 19.68C161.538 19.68 160.658 20.064 160.002 20.832C159.362 21.6 159.042 22.712 159.042 24.168C159.042 25.608 159.362 26.72 160.002 27.504C160.658 28.272 161.538 28.656 162.642 28.656ZM172.227 30.168C171.651 30.168 171.363 29.856 171.363 29.232V19.2C171.363 18.512 171.651 18.168 172.227 18.168C172.515 18.168 172.731 18.232 172.875 18.36C173.035 18.488 173.171 18.656 173.283 18.864L177.363 26.136L181.443 18.864C181.555 18.656 181.683 18.488 181.827 18.36C181.987 18.232 182.203 18.168 182.475 18.168C183.051 18.168 183.339 18.512 183.339 19.2V29.232C183.339 29.856 183.051 30.168 182.475 30.168C181.899 30.168 181.611 29.856 181.611 29.232V21.504L178.059 27.768C177.979 27.896 177.883 28.008 177.771 28.104C177.675 28.184 177.539 28.224 177.363 28.224C177.171 28.224 177.019 28.184 176.907 28.104C176.811 28.008 176.723 27.896 176.643 27.768L173.091 21.504V29.232C173.091 29.856 172.803 30.168 172.227 30.168Z" fill="#93FC6E"/>
<path d="M18.2944 0C8.02665 0 0 4.76667 0 10.8333V32.5C0 38.5667 8.02665 43.3333 18.2944 43.3333C28.5621 43.3333 36.5887 38.5667 36.5887 32.5V10.8333C36.5887 4.76667 28.5621 0 18.2944 0ZM18.2944 39C10.1991 39 4.57359 35.5767 4.57359 32.5V18.0483C8.65689 20.5389 13.4401 21.8003 18.2944 21.6667C23.1486 21.8003 27.9318 20.5389 32.0151 18.0483V32.5C32.0151 35.5767 26.3896 39 18.2944 39ZM18.2944 17.3333C10.1991 17.3333 4.57359 13.91 4.57359 10.8333C4.57359 7.75667 10.1991 4.33333 18.2944 4.33333C26.3896 4.33333 32.0151 7.75667 32.0151 10.8333C32.0151 13.91 26.3896 17.3333 18.2944 17.3333Z" fill="white"/>
</svg>
