<svg width="80" height="80" viewBox="0 0 80 80" fill="none" xmlns="http://www.w3.org/2000/svg">
<path d="M66.8041 53.6083V51.134C66.8041 43.9158 63.9367 36.9931 58.8326 31.8891C53.7285 26.785 46.8059 23.9175 39.5876 23.9175M39.5876 23.9175C32.3694 23.9175 25.4467 26.785 20.3426 31.8891C15.2386 36.9931 12.3711 43.9158 12.3711 51.134V53.6083M39.5876 23.9175V14.0206M71.7526 53.6083H7.42267L9.00617 58.9031C9.61467 60.9496 10.8687 62.7445 12.581 64.0198C14.2933 65.2951 16.3721 65.9825 18.5072 65.9794H60.668C62.8031 65.9825 64.8819 65.2951 66.5943 64.0198C68.3066 62.7445 69.5606 60.9496 70.1691 58.9031L71.7526 53.6083Z" stroke="#93FC6E" stroke-width="5" stroke-linecap="round" stroke-linejoin="round"/>
</svg>
