<svg width="32" height="32" viewBox="0 0 32 32" fill="none" xmlns="http://www.w3.org/2000/svg">
<path d="M20.0974 2.6665H11.916C4.44402 2.6665 2.66669 4.44384 2.66669 11.9025V20.0838C2.66669 27.5545 4.43069 29.3332 11.9027 29.3332H20.084C27.5547 29.3332 29.3334 27.5692 29.3334 20.0972V11.9158C29.3334 4.44384 27.5694 2.6665 20.0974 2.6665ZM24.1947 21.6932H22.2494C21.5134 21.6932 21.292 21.0972 19.972 19.7772C18.82 18.6665 18.3334 18.5278 18.0414 18.5278C17.6387 18.5278 17.528 18.6385 17.528 19.1945V20.9438C17.528 21.4172 17.3747 21.6945 16.1387 21.6945C14.9391 21.6139 13.7759 21.2495 12.7448 20.6312C11.7137 20.013 10.8442 19.1586 10.208 18.1385C8.69758 16.2585 7.64661 14.052 7.13869 11.6945C7.13869 11.4025 7.24935 11.1385 7.80535 11.1385H9.74935C10.2494 11.1385 10.4294 11.3612 10.6254 11.8745C11.5694 14.6532 13.18 17.0692 13.8334 17.0692C14.084 17.0692 14.1934 16.9585 14.1934 16.3332V13.4718C14.1107 12.1665 13.4174 12.0558 13.4174 11.5838C13.4263 11.4593 13.4833 11.3432 13.5764 11.2601C13.6695 11.1769 13.7913 11.1333 13.916 11.1385H16.972C17.3894 11.1385 17.528 11.3465 17.528 11.8465V15.7078C17.528 16.1252 17.708 16.2638 17.8334 16.2638C18.084 16.2638 18.2774 16.1252 18.736 15.6665C19.7212 14.4651 20.5261 13.1266 21.1254 11.6932C21.1866 11.521 21.3025 11.3736 21.4554 11.2734C21.6083 11.1733 21.7897 11.1259 21.972 11.1385H23.9174C24.5 11.1385 24.624 11.4305 24.5 11.8465C23.7927 13.4311 22.9174 14.9352 21.8894 16.3332C21.68 16.6532 21.596 16.8198 21.8894 17.1945C22.0827 17.4865 22.764 18.0558 23.2227 18.5972C23.8892 19.262 24.4427 20.0313 24.8614 20.8745C25.028 21.4158 24.7494 21.6932 24.1947 21.6932Z" fill="white"/>
</svg>
